<?xml version="1.0" encoding="UTF-8"?>
<svg xmlns="http://www.w3.org/2000/svg" xmlns:xlink="http://www.w3.org/1999/xlink" width="13px" height="13px" viewBox="0 0 13 13" version="1.1">
<defs>
<linearGradient id="linear0" gradientUnits="userSpaceOnUse" x1="0.54638" y1="0.26924" x2="0.28129" y2="0.79519" gradientTransform="matrix(6.561361,0,0,7.557943,2.894531,0.0909832)">
<stop offset="0" style="stop-color:rgb(100%,100%,100%);stop-opacity:0;"/>
<stop offset="1" style="stop-color:rgb(100%,100%,100%);stop-opacity:0.27451;"/>
</linearGradient>
</defs>
<g id="surface1">
<path style=" stroke:none;fill-rule:nonzero;fill:rgb(9.019608%,57.647059%,81.960784%);fill-opacity:1;" d="M 6.453125 0.0429688 C 5.878906 1.4375 5.535156 2.351562 4.898438 3.710938 C 5.289062 4.121094 5.769531 4.601562 6.542969 5.140625 C 5.707031 4.796875 5.140625 4.457031 4.714844 4.097656 C 3.902344 5.792969 2.632812 8.207031 0.0507812 12.839844 C 2.078125 11.671875 3.652344 10.949219 5.117188 10.671875 C 5.050781 10.402344 5.019531 10.109375 5.023438 9.804688 L 5.023438 9.738281 C 5.058594 8.441406 5.730469 7.441406 6.535156 7.507812 C 7.332031 7.578125 7.957031 8.6875 7.925781 9.984375 C 7.917969 10.230469 7.890625 10.464844 7.84375 10.683594 C 9.292969 10.96875 10.851562 11.6875 12.851562 12.839844 C 12.457031 12.117188 12.101562 11.460938 11.765625 10.835938 C 11.234375 10.425781 10.683594 9.890625 9.558594 9.3125 C 10.332031 9.515625 10.886719 9.746094 11.320312 10.007812 C 7.898438 3.640625 7.625 2.792969 6.453125 0.0429688 Z M 6.453125 0.0429688 "/>
<path style=" stroke:none;fill-rule:nonzero;fill:rgb(100%,100%,100%);fill-opacity:0.164706;" d="M 10.050781 7.648438 C 7.277344 3.882812 6.636719 0.847656 6.472656 0.125 C 7.953125 3.539062 7.941406 3.578125 10.050781 7.648438 Z M 10.050781 7.648438 "/>
<path style=" stroke:none;fill-rule:nonzero;fill:url(#linear0);" d="M 6.476562 0.0898438 C 6.402344 0.269531 6.335938 0.441406 6.269531 0.605469 C 6.199219 0.78125 6.125 0.957031 6.058594 1.125 C 5.988281 1.289062 5.917969 1.449219 5.851562 1.609375 C 5.78125 1.769531 5.71875 1.933594 5.652344 2.09375 C 5.582031 2.253906 5.503906 2.414062 5.429688 2.578125 C 5.359375 2.746094 5.28125 2.910156 5.199219 3.085938 C 5.121094 3.261719 5.035156 3.445312 4.945312 3.636719 C 4.933594 3.660156 4.917969 3.691406 4.90625 3.71875 C 5.292969 4.128906 5.773438 4.601562 6.542969 5.140625 C 5.710938 4.796875 5.144531 4.457031 4.71875 4.097656 C 4.695312 4.144531 4.679688 4.183594 4.65625 4.230469 C 4.574219 4.402344 4.484375 4.578125 4.386719 4.765625 C 4.363281 4.8125 4.347656 4.851562 4.324219 4.898438 C 4.226562 5.097656 4.121094 5.304688 4.007812 5.527344 C 3.984375 5.574219 3.960938 5.609375 3.9375 5.652344 C 3.871094 5.785156 3.648438 6.207031 3.425781 6.636719 C 3.292969 6.886719 3.191406 7.089844 3.042969 7.367188 C 3.003906 7.445312 2.914062 7.605469 2.894531 7.648438 C 4.519531 6.734375 6.269531 5.402344 9.457031 6.542969 C 9.296875 6.238281 9.144531 5.957031 9.007812 5.691406 C 8.871094 5.425781 8.746094 5.175781 8.625 4.941406 C 8.503906 4.707031 8.398438 4.484375 8.292969 4.273438 C 8.191406 4.0625 8.09375 3.863281 8.007812 3.671875 C 7.917969 3.484375 7.828125 3.296875 7.75 3.125 C 7.671875 2.949219 7.597656 2.777344 7.527344 2.609375 C 7.453125 2.445312 7.386719 2.277344 7.320312 2.117188 C 7.25 1.953125 7.183594 1.796875 7.121094 1.636719 C 7.089844 1.5625 7.066406 1.488281 7.039062 1.417969 C 6.859375 1 6.6875 0.585938 6.476562 0.0898438 Z M 6.476562 0.0898438 "/>
</g>
</svg>
